<?xml version="1.0" encoding="utf-8" standalone="no"?>
<!DOCTYPE svg PUBLIC "-//W3C//DTD SVG 1.1//EN"
  "http://www.w3.org/Graphics/SVG/1.1/DTD/svg11.dtd">
<svg xmlns:xlink="http://www.w3.org/1999/xlink" width="595.194782pt" height="296.399855pt" viewBox="0 0 595.194782 296.399855" xmlns="http://www.w3.org/2000/svg" version="1.1">
 <metadata>
  <rdf:RDF xmlns:dc="http://purl.org/dc/elements/1.1/" xmlns:cc="http://creativecommons.org/ns#" xmlns:rdf="http://www.w3.org/1999/02/22-rdf-syntax-ns#">
   <cc:Work>
    <dc:type rdf:resource="http://purl.org/dc/dcmitype/StillImage"/>
    <dc:date>2025-01-29T12:50:34.900006</dc:date>
    <dc:format>image/svg+xml</dc:format>
    <dc:creator>
     <cc:Agent>
      <dc:title>Matplotlib v3.7.1, https://matplotlib.org/</dc:title>
     </cc:Agent>
    </dc:creator>
   </cc:Work>
  </rdf:RDF>
 </metadata>
 <defs>
  <style type="text/css">*{stroke-linejoin: round; stroke-linecap: butt}</style>
 </defs>
 <g id="figure_1">
  <g id="patch_1">
   <path d="M 0 296.399855 
L 595.194782 296.399855 
L 595.194782 0 
L 0 0 
z
" style="fill: #ffffff"/>
  </g>
  <g id="subfigure_1">
   <g id="patch_2">
    <path d="M 4.199789 292.200095 
L 260.807789 292.200095 
L 260.807789 4.200095 
L 4.199789 4.200095 
z
" style="fill: #ffffff"/>
   </g>
   <g id="axes_1">
    <g id="patch_3">
     <path d="M 26.83919 251.564855 
L 246.012549 251.564855 
L 246.012549 48.303055 
L 26.83919 48.303055 
z
" style="fill: #ffffff"/>
    </g>
    <g id="matplotlib.axis_1">
     <g id="xtick_1">
      <g id="line2d_1"/>
      <g id="text_1">
       <!-- 0 -->
       <g transform="translate(22.204971 265.453292) scale(0.14 -0.14)">
        <defs>
         <path id="Montserrat-Regular-30" d="M 2118 -38 
C 3155 -38 3910 813 3910 2240 
C 3910 3667 3155 4518 2118 4518 
C 1082 4518 333 3667 333 2240 
C 333 813 1082 -38 2118 -38 
z
M 2118 384 
C 1338 384 800 1043 800 2240 
C 800 3437 1338 4096 2118 4096 
C 2899 4096 3437 3437 3437 2240 
C 3437 1043 2899 384 2118 384 
z
" transform="scale(0.015625)"/>
        </defs>
        <use xlink:href="#Montserrat-Regular-30"/>
       </g>
      </g>
     </g>
     <g id="xtick_2">
      <g id="line2d_2"/>
      <g id="text_2">
       <!-- 25 -->
       <g transform="translate(73.695186 265.453292) scale(0.14 -0.14)">
        <defs>
         <path id="Montserrat-Regular-32" d="M 928 410 
L 2451 1907 
C 3053 2496 3187 2880 3187 3309 
C 3187 4058 2611 4518 1702 4518 
C 1018 4518 461 4288 115 3878 
L 442 3597 
C 736 3936 1139 4096 1664 4096 
C 2349 4096 2714 3776 2714 3258 
C 2714 2950 2618 2650 2112 2150 
L 250 326 
L 250 0 
L 3392 0 
L 3392 410 
L 928 410 
z
" transform="scale(0.015625)"/>
         <path id="Montserrat-Regular-35" d="M 1510 2643 
L 934 2643 
L 1088 4070 
L 3136 4070 
L 3136 4480 
L 685 4480 
L 454 2234 
L 1408 2234 
C 2547 2234 2906 1875 2906 1299 
C 2906 755 2502 384 1741 384 
C 1165 384 653 602 365 902 
L 141 538 
C 486 186 1101 -38 1747 -38 
C 2842 -38 3373 557 3373 1318 
C 3373 2112 2861 2643 1510 2643 
z
" transform="scale(0.015625)"/>
        </defs>
        <use xlink:href="#Montserrat-Regular-32"/>
        <use xlink:href="#Montserrat-Regular-35" x="56.799988"/>
       </g>
      </g>
     </g>
     <g id="xtick_3">
      <g id="line2d_3"/>
      <g id="text_3">
       <!-- 50 -->
       <g transform="translate(127.830088 265.453292) scale(0.14 -0.14)">
        <use xlink:href="#Montserrat-Regular-35"/>
        <use xlink:href="#Montserrat-Regular-30" x="56.599991"/>
       </g>
      </g>
     </g>
     <g id="xtick_4">
      <g id="line2d_4"/>
      <g id="text_4">
       <!-- 75 -->
       <g transform="translate(183.13421 265.453292) scale(0.14 -0.14)">
        <defs>
         <path id="Montserrat-Regular-37" d="M 205 4480 
L 205 3232 
L 659 3232 
L 659 4070 
L 2963 4070 
L 1120 0 
L 1619 0 
L 3494 4154 
L 3494 4480 
L 205 4480 
z
" transform="scale(0.015625)"/>
        </defs>
        <use xlink:href="#Montserrat-Regular-37"/>
        <use xlink:href="#Montserrat-Regular-35" x="58.899994"/>
       </g>
      </g>
     </g>
     <g id="xtick_5">
      <g id="line2d_5"/>
      <g id="text_5">
       <!-- 100 -->
       <g transform="translate(234.217549 265.453292) scale(0.14 -0.14)">
        <defs>
         <path id="Montserrat-Regular-31" d="M 58 4480 
L 58 4070 
L 1114 4070 
L 1114 0 
L 1574 0 
L 1574 4480 
L 58 4480 
z
" transform="scale(0.015625)"/>
        </defs>
        <use xlink:href="#Montserrat-Regular-31"/>
        <use xlink:href="#Montserrat-Regular-30" x="36.099991"/>
        <use xlink:href="#Montserrat-Regular-30" x="102.299988"/>
       </g>
      </g>
     </g>
     <g id="text_6">
      <!-- %away from pial -->
      <g transform="translate(62.731338 285.61673) scale(0.18 -0.18)">
       <defs>
        <path id="Montserrat-Regular-25" d="M 1280 2080 
C 1875 2080 2291 2560 2291 3296 
C 2291 4032 1875 4512 1280 4512 
C 678 4512 269 4026 269 3296 
C 269 2566 678 2080 1280 2080 
z
M 934 0 
L 1312 0 
L 4371 4480 
L 3994 4480 
L 934 0 
z
M 1280 2368 
C 858 2368 589 2720 589 3296 
C 589 3872 858 4224 1280 4224 
C 1696 4224 1971 3878 1971 3296 
C 1971 2714 1696 2368 1280 2368 
z
M 4026 -32 
C 4627 -32 5037 454 5037 1184 
C 5037 1914 4627 2400 4026 2400 
C 3430 2400 3014 1914 3014 1184 
C 3014 454 3430 -32 4026 -32 
z
M 4026 256 
C 3610 256 3334 602 3334 1184 
C 3334 1766 3610 2112 4026 2112 
C 4448 2112 4717 1760 4717 1184 
C 4717 608 4448 256 4026 256 
z
" transform="scale(0.015625)"/>
        <path id="Montserrat-Regular-61" d="M 1811 3392 
C 1280 3392 781 3226 442 2938 
L 646 2598 
C 922 2842 1331 2995 1766 2995 
C 2394 2995 2720 2682 2720 2106 
L 2720 1901 
L 1651 1901 
C 685 1901 352 1466 352 947 
C 352 365 819 -32 1581 -32 
C 2138 -32 2534 179 2739 525 
L 2739 0 
L 3174 0 
L 3174 2086 
C 3174 2957 2682 3392 1811 3392 
z
M 1651 326 
C 1114 326 800 570 800 960 
C 800 1306 1011 1562 1664 1562 
L 2720 1562 
L 2720 1011 
C 2541 570 2163 326 1651 326 
z
" transform="scale(0.015625)"/>
        <path id="Montserrat-Regular-77" d="M 5158 3366 
L 4090 506 
L 3014 3366 
L 2624 3366 
L 1542 506 
L 486 3366 
L 51 3366 
L 1318 0 
L 1747 0 
L 2810 2758 
L 3872 0 
L 4301 0 
L 5574 3366 
L 5158 3366 
z
" transform="scale(0.015625)"/>
        <path id="Montserrat-Regular-79" d="M 3014 3366 
L 1747 506 
L 480 3366 
L 6 3366 
L 1510 6 
L 1363 -320 
C 1171 -742 966 -883 666 -883 
C 422 -883 218 -794 51 -627 
L -160 -966 
C 45 -1171 346 -1274 659 -1274 
C 1139 -1274 1498 -1062 1779 -403 
L 3462 3366 
L 3014 3366 
z
" transform="scale(0.015625)"/>
        <path id="Montserrat-Regular-20" transform="scale(0.015625)"/>
        <path id="Montserrat-Regular-66" d="M 1747 4397 
C 1939 4397 2118 4339 2246 4230 
L 2400 4570 
C 2234 4710 1978 4781 1728 4781 
C 1069 4781 710 4384 710 3782 
L 710 3366 
L 109 3366 
L 109 2982 
L 710 2982 
L 710 0 
L 1165 0 
L 1165 2982 
L 2189 2982 
L 2189 3366 
L 1152 3366 
L 1152 3763 
C 1152 4179 1357 4397 1747 4397 
z
" transform="scale(0.015625)"/>
        <path id="Montserrat-Regular-72" d="M 1069 2707 
L 1069 3366 
L 634 3366 
L 634 0 
L 1088 0 
L 1088 1715 
C 1088 2509 1517 2957 2221 2957 
C 2253 2957 2291 2950 2330 2950 
L 2330 3392 
C 1709 3392 1280 3155 1069 2707 
z
" transform="scale(0.015625)"/>
        <path id="Montserrat-Regular-6f" d="M 2010 -32 
C 2995 -32 3718 685 3718 1683 
C 3718 2682 2995 3392 2010 3392 
C 1024 3392 294 2682 294 1683 
C 294 685 1024 -32 2010 -32 
z
M 2010 371 
C 1293 371 755 896 755 1683 
C 755 2470 1293 2995 2010 2995 
C 2726 2995 3258 2470 3258 1683 
C 3258 896 2726 371 2010 371 
z
" transform="scale(0.015625)"/>
        <path id="Montserrat-Regular-6d" d="M 4832 3392 
C 4224 3392 3744 3117 3501 2682 
C 3296 3155 2861 3392 2304 3392 
C 1741 3392 1306 3155 1069 2752 
L 1069 3366 
L 634 3366 
L 634 0 
L 1088 0 
L 1088 1766 
C 1088 2534 1530 2982 2214 2982 
C 2829 2982 3187 2618 3187 1907 
L 3187 0 
L 3642 0 
L 3642 1766 
C 3642 2534 4077 2982 4768 2982 
C 5376 2982 5734 2618 5734 1907 
L 5734 0 
L 6189 0 
L 6189 1952 
C 6189 2918 5651 3392 4832 3392 
z
" transform="scale(0.015625)"/>
        <path id="Montserrat-Regular-70" d="M 2368 3392 
C 1811 3392 1344 3149 1069 2701 
L 1069 3366 
L 634 3366 
L 634 -1242 
L 1088 -1242 
L 1088 634 
C 1370 198 1830 -32 2368 -32 
C 3328 -32 4045 659 4045 1683 
C 4045 2701 3328 3392 2368 3392 
z
M 2336 371 
C 1619 371 1082 896 1082 1683 
C 1082 2464 1619 2995 2336 2995 
C 3046 2995 3590 2464 3590 1683 
C 3590 896 3046 371 2336 371 
z
" transform="scale(0.015625)"/>
        <path id="Montserrat-Regular-69" d="M 864 4102 
C 1056 4102 1197 4250 1197 4435 
C 1197 4608 1050 4749 864 4749 
C 678 4749 531 4602 531 4429 
C 531 4250 678 4102 864 4102 
z
M 634 0 
L 1088 0 
L 1088 3366 
L 634 3366 
L 634 0 
z
" transform="scale(0.015625)"/>
        <path id="Montserrat-Regular-6c" d="M 634 0 
L 1088 0 
L 1088 4749 
L 634 4749 
L 634 0 
z
" transform="scale(0.015625)"/>
       </defs>
       <use xlink:href="#Montserrat-Regular-25"/>
       <use xlink:href="#Montserrat-Regular-61" x="82.899994"/>
       <use xlink:href="#Montserrat-Regular-77" x="141.899979"/>
       <use xlink:href="#Montserrat-Regular-61" x="229.799973"/>
       <use xlink:href="#Montserrat-Regular-79" x="288.799957"/>
       <use xlink:href="#Montserrat-Regular-20" x="342.999954"/>
       <use xlink:href="#Montserrat-Regular-66" x="369.199951"/>
       <use xlink:href="#Montserrat-Regular-72" x="403.099945"/>
       <use xlink:href="#Montserrat-Regular-6f" x="443.199936"/>
       <use xlink:href="#Montserrat-Regular-6d" x="505.899933"/>
       <use xlink:href="#Montserrat-Regular-20" x="611.999924"/>
       <use xlink:href="#Montserrat-Regular-70" x="638.199921"/>
       <use xlink:href="#Montserrat-Regular-69" x="705.999908"/>
       <use xlink:href="#Montserrat-Regular-61" x="732.899902"/>
       <use xlink:href="#Montserrat-Regular-6c" x="791.899887"/>
      </g>
     </g>
    </g>
    <g id="matplotlib.axis_2">
     <g id="ytick_1">
      <g id="line2d_6"/>
      <g id="text_7">
       <!-- 0 -->
       <g transform="translate(14.070752 247.519901) scale(0.14 -0.14)">
        <use xlink:href="#Montserrat-Regular-30"/>
       </g>
      </g>
     </g>
     <g id="ytick_2">
      <g id="line2d_7"/>
      <g id="text_8">
       <!-- 1 -->
       <g transform="translate(18.286065 62.736446) scale(0.14 -0.14)">
        <use xlink:href="#Montserrat-Regular-31"/>
       </g>
      </g>
     </g>
    </g>
    <g id="line2d_8">
     <path d="M 26.83919 57.542228 
L 37.797858 67.267673 
L 48.756526 76.993118 
L 59.715194 86.718563 
L 70.673862 96.444008 
L 81.63253 106.169453 
L 92.591198 115.894898 
L 103.549866 125.620343 
L 114.508534 135.345787 
L 125.467202 145.071232 
L 136.42587 154.796677 
L 147.384538 164.522122 
L 158.343206 174.247567 
L 169.301874 183.973012 
L 180.260542 193.698457 
L 191.21921 203.423902 
L 202.177877 213.149347 
L 213.136545 222.874792 
L 224.095213 232.600237 
L 235.053881 242.325682 
" clip-path="url(#pcb9798e824)" style="fill: none; stroke: #3b528b; stroke-width: 3; stroke-linecap: square"/>
    </g>
    <g id="line2d_9">
     <path d="M 26.83919 227.052327 
L 37.797858 217.17903 
L 48.756526 203.154627 
L 59.715194 184.597255 
L 70.673862 161.83353 
L 81.63253 136.142259 
L 92.591198 109.800239 
L 103.549866 85.837634 
L 114.508534 67.501121 
L 125.467202 57.542228 
L 136.42587 57.542228 
L 147.384538 67.501121 
L 158.343206 85.837634 
L 169.301874 109.800239 
L 180.260542 136.142259 
L 191.21921 161.83353 
L 202.177877 184.597255 
L 213.136545 203.154627 
L 224.095213 217.17903 
L 235.053881 227.052327 
" clip-path="url(#pcb9798e824)" style="fill: none; stroke: #21918c; stroke-width: 3; stroke-linecap: square"/>
    </g>
    <g id="line2d_10">
     <path d="M 26.83919 57.542228 
L 37.797858 100.587362 
L 48.756526 133.672736 
L 59.715194 159.102833 
L 70.673862 178.648928 
L 81.63253 193.672458 
L 92.591198 205.219851 
L 103.549866 214.095414 
L 114.508534 220.917355 
L 125.467202 226.160838 
L 136.42587 230.191087 
L 147.384538 233.288819 
L 158.343206 235.6698 
L 169.301874 237.49987 
L 180.260542 238.9065 
L 191.21921 239.987664 
L 202.177877 240.818669 
L 213.136545 241.457397 
L 224.095213 241.948336 
L 235.053881 242.325682 
" clip-path="url(#pcb9798e824)" style="fill: none; stroke: #5ec962; stroke-width: 3; stroke-linecap: square"/>
    </g>
    <g id="patch_4">
     <path d="M 26.83919 251.564855 
L 26.83919 48.303055 
" style="fill: none; stroke: #000000; stroke-width: 0.5; stroke-linejoin: miter; stroke-linecap: square"/>
    </g>
    <g id="patch_5">
     <path d="M 26.83919 251.564855 
L 246.012549 251.564855 
" style="fill: none; stroke: #000000; stroke-width: 0.5; stroke-linejoin: miter; stroke-linecap: square"/>
    </g>
    <g id="text_9">
     <!-- pial -->
     <g transform="translate(31.222657 246.48331) scale(0.18 -0.18)">
      <defs>
       <path id="Montserrat-Bold-70" d="M 2496 3494 
C 2035 3494 1664 3347 1414 3046 
L 1414 3443 
L 461 3443 
L 461 -1242 
L 1459 -1242 
L 1459 365 
C 1715 83 2067 -51 2496 -51 
C 3462 -51 4211 640 4211 1722 
C 4211 2803 3462 3494 2496 3494 
z
M 2323 768 
C 1824 768 1446 1126 1446 1722 
C 1446 2317 1824 2675 2323 2675 
C 2822 2675 3200 2317 3200 1722 
C 3200 1126 2822 768 2323 768 
z
" transform="scale(0.015625)"/>
       <path id="Montserrat-Bold-69" d="M 960 3923 
C 1331 3923 1581 4166 1581 4499 
C 1581 4806 1331 5037 960 5037 
C 589 5037 339 4794 339 4480 
C 339 4166 589 3923 960 3923 
z
M 461 0 
L 1459 0 
L 1459 3443 
L 461 3443 
L 461 0 
z
" transform="scale(0.015625)"/>
       <path id="Montserrat-Bold-61" d="M 1850 3494 
C 1299 3494 742 3347 365 3078 
L 723 2381 
C 973 2579 1350 2701 1715 2701 
C 2253 2701 2509 2451 2509 2022 
L 1715 2022 
C 666 2022 237 1600 237 992 
C 237 397 717 -51 1523 -51 
C 2029 -51 2387 115 2573 429 
L 2573 0 
L 3507 0 
L 3507 1965 
C 3507 3008 2899 3494 1850 3494 
z
M 1773 621 
C 1421 621 1210 787 1210 1037 
C 1210 1267 1357 1440 1824 1440 
L 2509 1440 
L 2509 1088 
C 2394 774 2106 621 1773 621 
z
" transform="scale(0.015625)"/>
       <path id="Montserrat-Bold-6c" d="M 461 0 
L 1459 0 
L 1459 4749 
L 461 4749 
L 461 0 
z
" transform="scale(0.015625)"/>
      </defs>
      <use xlink:href="#Montserrat-Bold-70"/>
      <use xlink:href="#Montserrat-Bold-69" x="68.999985"/>
      <use xlink:href="#Montserrat-Bold-61" x="99.099976"/>
      <use xlink:href="#Montserrat-Bold-6c" x="160.799973"/>
     </g>
    </g>
    <g id="text_10">
     <!-- wm -->
     <g transform="translate(215.328279 246.48331) scale(0.18 -0.18)">
      <defs>
       <path id="Montserrat-Bold-77" d="M 5107 3443 
L 4269 1114 
L 3450 3443 
L 2605 3443 
L 1760 1114 
L 947 3443 
L 6 3443 
L 1248 0 
L 2208 0 
L 3008 2138 
L 3782 0 
L 4742 0 
L 5990 3443 
L 5107 3443 
z
" transform="scale(0.015625)"/>
       <path id="Montserrat-Bold-6d" d="M 4870 3494 
C 4352 3494 3904 3283 3629 2931 
C 3386 3309 2976 3494 2496 3494 
C 2054 3494 1670 3341 1414 3046 
L 1414 3443 
L 461 3443 
L 461 0 
L 1459 0 
L 1459 1728 
C 1459 2342 1773 2630 2214 2630 
C 2630 2630 2867 2374 2867 1818 
L 2867 0 
L 3866 0 
L 3866 1728 
C 3866 2342 4179 2630 4627 2630 
C 5030 2630 5280 2374 5280 1818 
L 5280 0 
L 6278 0 
L 6278 1971 
C 6278 3021 5690 3494 4870 3494 
z
" transform="scale(0.015625)"/>
      </defs>
      <use xlink:href="#Montserrat-Bold-77"/>
      <use xlink:href="#Montserrat-Bold-6d" x="93.699982"/>
     </g>
    </g>
    <g id="text_11">
     <!-- A -->
     <g transform="translate(7.2 27.976875) scale(0.28 -0.28)">
      <defs>
       <path id="Montserrat-Regular-41" d="M 4077 0 
L 4576 0 
L 2528 4480 
L 2061 4480 
L 13 0 
L 506 0 
L 1043 1197 
L 3539 1197 
L 4077 0 
z
M 1216 1581 
L 2291 3987 
L 3366 1581 
L 1216 1581 
z
" transform="scale(0.015625)"/>
      </defs>
      <use xlink:href="#Montserrat-Regular-41"/>
     </g>
    </g>
    <g id="legend_1">
     <g id="line2d_11">
      <path d="M 156.526299 66.391492 
L 170.526299 66.391492 
L 184.526299 66.391492 
" style="fill: none; stroke: #3b528b; stroke-width: 3; stroke-linecap: square"/>
     </g>
     <g id="text_12">
      <!-- linear -->
      <g transform="translate(188.026299 71.291492) scale(0.14 -0.14)">
       <defs>
        <path id="Montserrat-Regular-6e" d="M 2349 3392 
C 1766 3392 1312 3155 1069 2746 
L 1069 3366 
L 634 3366 
L 634 0 
L 1088 0 
L 1088 1766 
C 1088 2534 1542 2982 2266 2982 
C 2906 2982 3277 2618 3277 1907 
L 3277 0 
L 3731 0 
L 3731 1952 
C 3731 2918 3168 3392 2349 3392 
z
" transform="scale(0.015625)"/>
        <path id="Montserrat-Regular-65" d="M 3571 1683 
C 3571 2694 2886 3392 1939 3392 
C 992 3392 294 2682 294 1683 
C 294 685 1011 -32 2061 -32 
C 2592 -32 3059 160 3360 518 
L 3104 813 
C 2848 518 2483 371 2074 371 
C 1338 371 800 838 749 1542 
L 3565 1542 
C 3565 1594 3571 1645 3571 1683 
z
M 1939 3002 
C 2598 3002 3078 2541 3136 1882 
L 749 1882 
C 806 2541 1286 3002 1939 3002 
z
" transform="scale(0.015625)"/>
       </defs>
       <use xlink:href="#Montserrat-Regular-6c"/>
       <use xlink:href="#Montserrat-Regular-69" x="26.899994"/>
       <use xlink:href="#Montserrat-Regular-6e" x="53.799988"/>
       <use xlink:href="#Montserrat-Regular-65" x="121.499969"/>
       <use xlink:href="#Montserrat-Regular-61" x="181.899963"/>
       <use xlink:href="#Montserrat-Regular-72" x="240.899948"/>
      </g>
     </g>
     <g id="line2d_12">
      <path d="M 156.526299 86.496805 
L 170.526299 86.496805 
L 184.526299 86.496805 
" style="fill: none; stroke: #21918c; stroke-width: 3; stroke-linecap: square"/>
     </g>
     <g id="text_13">
      <!-- micro -->
      <g transform="translate(188.026299 91.396805) scale(0.14 -0.14)">
       <defs>
        <path id="Montserrat-Regular-63" d="M 2029 -32 
C 2598 -32 3078 198 3347 634 
L 3008 864 
C 2778 525 2419 371 2029 371 
C 1293 371 755 890 755 1683 
C 755 2470 1293 2995 2029 2995 
C 2419 2995 2778 2835 3008 2496 
L 3347 2726 
C 3078 3168 2598 3392 2029 3392 
C 1024 3392 294 2688 294 1683 
C 294 678 1024 -32 2029 -32 
z
" transform="scale(0.015625)"/>
       </defs>
       <use xlink:href="#Montserrat-Regular-6d"/>
       <use xlink:href="#Montserrat-Regular-69" x="106.099991"/>
       <use xlink:href="#Montserrat-Regular-63" x="132.999985"/>
       <use xlink:href="#Montserrat-Regular-72" x="189.299973"/>
       <use xlink:href="#Montserrat-Regular-6f" x="229.399963"/>
      </g>
     </g>
     <g id="line2d_13">
      <path d="M 156.526299 106.602117 
L 170.526299 106.602117 
L 184.526299 106.602117 
" style="fill: none; stroke: #5ec962; stroke-width: 3; stroke-linecap: square"/>
     </g>
     <g id="text_14">
      <!-- macro -->
      <g transform="translate(188.026299 111.502117) scale(0.14 -0.14)">
       <use xlink:href="#Montserrat-Regular-6d"/>
       <use xlink:href="#Montserrat-Regular-61" x="106.099991"/>
       <use xlink:href="#Montserrat-Regular-63" x="165.099976"/>
       <use xlink:href="#Montserrat-Regular-72" x="221.399963"/>
       <use xlink:href="#Montserrat-Regular-6f" x="261.499954"/>
      </g>
     </g>
    </g>
   </g>
  </g>
  <g id="subfigure_2">
   <g id="patch_6">
    <path d="M 266.567789 292.200095 
L 580.199789 292.200095 
L 580.199789 4.200095 
L 266.567789 4.200095 
z
" style="fill: #ffffff"/>
   </g>
   <g id="axes_2">
    <g id="patch_7">
     <path d="M 320.435943 266.259687 
L 377.556103 266.259687 
L 377.556103 49.641079 
L 320.435943 49.641079 
z
" style="fill: #ffffff"/>
    </g>
    <g id="patch_8">
     <path d="M 362.979335 191.19323 
L 372.103724 191.19323 
Q 374.88555 191.19323 374.88555 186.754368 
L 374.88555 167.224821 
Q 374.88555 162.785959 372.103724 162.785959 
L 362.979335 162.785959 
Q 360.197509 162.785959 360.197509 167.224821 
L 360.197509 186.754368 
Q 360.197509 191.19323 362.979335 191.19323 
z
" clip-path="url(#p64a53107d8)" style="fill: #6281e9"/>
    </g>
    <g id="patch_9">
     <path d="M 344.433828 191.19323 
L 353.558218 191.19323 
Q 356.340044 191.19323 356.340044 186.754368 
L 356.340044 186.786547 
Q 356.340044 182.347685 353.558218 182.347685 
L 344.433828 182.347685 
Q 341.652002 182.347685 341.652002 186.786547 
L 341.652002 186.754368 
Q 341.652002 191.19323 344.433828 191.19323 
z
" clip-path="url(#p64a53107d8)" style="fill: #be631d"/>
    </g>
    <g id="patch_10">
     <path d="M 325.888322 211.82655 
L 335.012711 211.82655 
Q 337.794537 211.82655 337.794537 207.387688 
L 337.794537 195.868831 
Q 337.794537 191.429969 335.012711 191.429969 
L 325.888322 191.429969 
Q 323.106496 191.429969 323.106496 195.868831 
L 323.106496 207.387688 
Q 323.106496 211.82655 325.888322 211.82655 
z
" clip-path="url(#p64a53107d8)" style="fill: #2b8e70"/>
    </g>
    <g id="matplotlib.axis_3"/>
    <g id="matplotlib.axis_4">
     <g id="ytick_3">
      <g id="line2d_14"/>
      <g id="text_15">
       <!-- −2 -->
       <g transform="translate(296.93438 241.317353) scale(0.14 -0.14)">
        <defs>
         <path id="Montserrat-Regular-2212" d="M 448 2048 
L 3232 2048 
L 3232 2426 
L 448 2426 
L 448 2048 
z
" transform="scale(0.015625)"/>
        </defs>
        <use xlink:href="#Montserrat-Regular-2212"/>
        <use xlink:href="#Montserrat-Regular-32" x="57.499985"/>
       </g>
      </g>
     </g>
     <g id="ytick_4">
      <g id="line2d_15"/>
      <g id="text_16">
       <!-- 0 -->
       <g transform="translate(303.667505 196.505818) scale(0.14 -0.14)">
        <use xlink:href="#Montserrat-Regular-30"/>
       </g>
      </g>
     </g>
     <g id="ytick_5">
      <g id="line2d_16"/>
      <g id="text_17">
       <!-- 2 -->
       <g transform="translate(304.98438 151.694283) scale(0.14 -0.14)">
        <use xlink:href="#Montserrat-Regular-32"/>
       </g>
      </g>
     </g>
     <g id="ytick_6">
      <g id="line2d_17"/>
      <g id="text_18">
       <!-- 4 -->
       <g transform="translate(303.682818 106.882748) scale(0.14 -0.14)">
        <defs>
         <path id="Montserrat-Regular-34" d="M 4141 1587 
L 3245 1587 
L 3245 2624 
L 2797 2624 
L 2797 1587 
L 851 1587 
L 3142 4480 
L 2630 4480 
L 256 1510 
L 256 1178 
L 2784 1178 
L 2784 0 
L 3245 0 
L 3245 1178 
L 4141 1178 
L 4141 1587 
z
" transform="scale(0.015625)"/>
        </defs>
        <use xlink:href="#Montserrat-Regular-34"/>
       </g>
      </g>
     </g>
     <g id="ytick_7">
      <g id="line2d_18"/>
      <g id="text_19">
       <!-- 6 -->
       <g transform="translate(304.409068 62.071213) scale(0.14 -0.14)">
        <defs>
         <path id="Montserrat-Regular-36" d="M 2189 2682 
C 1568 2682 1043 2406 819 1914 
C 806 2048 800 2176 800 2278 
C 800 3494 1421 4115 2387 4115 
C 2720 4115 3027 4058 3258 3904 
L 3443 4275 
C 3162 4448 2784 4518 2381 4518 
C 1165 4518 333 3725 333 2202 
C 333 787 979 -38 2170 -38 
C 3040 -38 3699 499 3699 1338 
C 3699 2157 3078 2682 2189 2682 
z
M 2150 352 
C 1376 352 966 819 966 1312 
C 966 1869 1434 2291 2118 2291 
C 2810 2291 3245 1914 3245 1325 
C 3245 730 2797 352 2150 352 
z
" transform="scale(0.015625)"/>
        </defs>
        <use xlink:href="#Montserrat-Regular-36"/>
       </g>
      </g>
     </g>
     <g id="text_20">
      <!-- $\beta_{context}$ -->
      <g transform="translate(289.15438 187.830383) rotate(-90) scale(0.18 -0.18)">
       <defs>
        <path id="DejaVuSans-Oblique-3b2" d="M 872 216 
L 572 -1331 
L -6 -1331 
L 928 3478 
Q 1206 4903 2538 4903 
Q 3888 4903 3659 3700 
Q 3503 2844 2894 2531 
Q 3713 2250 3553 1416 
Q 3272 -69 1759 -66 
Q 1097 -63 872 216 
z
M 1019 966 
Q 1259 422 1875 425 
Q 2775 425 2966 1406 
Q 3138 2288 1675 2219 
L 1778 2750 
Q 2909 2731 3106 3750 
Q 3241 4438 2509 4434 
Q 1691 4434 1503 3459 
L 1019 966 
z
" transform="scale(0.015625)"/>
        <path id="DejaVuSans-Oblique-63" d="M 3431 3366 
L 3316 2797 
Q 3109 2947 2876 3022 
Q 2644 3097 2394 3097 
Q 2119 3097 1870 3000 
Q 1622 2903 1453 2725 
Q 1184 2453 1037 2087 
Q 891 1722 891 1331 
Q 891 859 1127 628 
Q 1363 397 1844 397 
Q 2081 397 2348 469 
Q 2616 541 2906 684 
L 2797 116 
Q 2547 13 2283 -39 
Q 2019 -91 1741 -91 
Q 1044 -91 669 257 
Q 294 606 294 1253 
Q 294 1797 489 2255 
Q 684 2713 1069 3078 
Q 1331 3328 1684 3456 
Q 2038 3584 2456 3584 
Q 2700 3584 2940 3529 
Q 3181 3475 3431 3366 
z
" transform="scale(0.015625)"/>
        <path id="DejaVuSans-Oblique-6f" d="M 1625 -91 
Q 1009 -91 651 289 
Q 294 669 294 1325 
Q 294 1706 417 2101 
Q 541 2497 738 2766 
Q 1047 3184 1428 3384 
Q 1809 3584 2291 3584 
Q 2888 3584 3255 3212 
Q 3622 2841 3622 2241 
Q 3622 1825 3500 1412 
Q 3378 1000 3181 728 
Q 2875 309 2494 109 
Q 2113 -91 1625 -91 
z
M 891 1344 
Q 891 869 1089 633 
Q 1288 397 1691 397 
Q 2269 397 2648 901 
Q 3028 1406 3028 2181 
Q 3028 2634 2825 2865 
Q 2622 3097 2228 3097 
Q 1903 3097 1650 2945 
Q 1397 2794 1197 2484 
Q 1050 2253 970 1956 
Q 891 1659 891 1344 
z
" transform="scale(0.015625)"/>
        <path id="DejaVuSans-Oblique-6e" d="M 3566 2113 
L 3156 0 
L 2578 0 
L 2988 2091 
Q 3016 2238 3031 2350 
Q 3047 2463 3047 2528 
Q 3047 2791 2881 2937 
Q 2716 3084 2419 3084 
Q 1956 3084 1622 2776 
Q 1288 2469 1184 1941 
L 800 0 
L 225 0 
L 903 3500 
L 1478 3500 
L 1363 2950 
Q 1603 3253 1940 3418 
Q 2278 3584 2650 3584 
Q 3113 3584 3367 3334 
Q 3622 3084 3622 2631 
Q 3622 2519 3608 2391 
Q 3594 2263 3566 2113 
z
" transform="scale(0.015625)"/>
        <path id="DejaVuSans-Oblique-74" d="M 2706 3500 
L 2619 3053 
L 1472 3053 
L 1100 1153 
Q 1081 1047 1072 975 
Q 1063 903 1063 863 
Q 1063 663 1183 572 
Q 1303 481 1569 481 
L 2150 481 
L 2053 0 
L 1503 0 
Q 991 0 739 200 
Q 488 400 488 806 
Q 488 878 497 964 
Q 506 1050 525 1153 
L 897 3053 
L 409 3053 
L 500 3500 
L 978 3500 
L 1172 4494 
L 1747 4494 
L 1556 3500 
L 2706 3500 
z
" transform="scale(0.015625)"/>
        <path id="DejaVuSans-Oblique-65" d="M 3078 2063 
Q 3088 2113 3092 2166 
Q 3097 2219 3097 2272 
Q 3097 2653 2873 2875 
Q 2650 3097 2266 3097 
Q 1838 3097 1509 2826 
Q 1181 2556 1013 2059 
L 3078 2063 
z
M 3578 1613 
L 903 1613 
Q 884 1494 878 1425 
Q 872 1356 872 1306 
Q 872 872 1139 634 
Q 1406 397 1894 397 
Q 2269 397 2603 481 
Q 2938 566 3225 728 
L 3116 159 
Q 2806 34 2476 -28 
Q 2147 -91 1806 -91 
Q 1078 -91 686 257 
Q 294 606 294 1247 
Q 294 1794 489 2264 
Q 684 2734 1063 3103 
Q 1306 3334 1642 3459 
Q 1978 3584 2356 3584 
Q 2950 3584 3301 3228 
Q 3653 2872 3653 2272 
Q 3653 2128 3634 1964 
Q 3616 1800 3578 1613 
z
" transform="scale(0.015625)"/>
        <path id="DejaVuSans-Oblique-78" d="M 3841 3500 
L 2234 1784 
L 3219 0 
L 2559 0 
L 1819 1388 
L 531 0 
L -166 0 
L 1556 1844 
L 641 3500 
L 1300 3500 
L 1972 2234 
L 3144 3500 
L 3841 3500 
z
" transform="scale(0.015625)"/>
       </defs>
       <use xlink:href="#DejaVuSans-Oblique-3b2" transform="translate(0 0.390625)"/>
       <use xlink:href="#DejaVuSans-Oblique-63" transform="translate(63.818359 -16.015625) scale(0.7)"/>
       <use xlink:href="#DejaVuSans-Oblique-6f" transform="translate(102.304688 -16.015625) scale(0.7)"/>
       <use xlink:href="#DejaVuSans-Oblique-6e" transform="translate(145.131836 -16.015625) scale(0.7)"/>
       <use xlink:href="#DejaVuSans-Oblique-74" transform="translate(189.49707 -16.015625) scale(0.7)"/>
       <use xlink:href="#DejaVuSans-Oblique-65" transform="translate(216.943359 -16.015625) scale(0.7)"/>
       <use xlink:href="#DejaVuSans-Oblique-78" transform="translate(260.009766 -16.015625) scale(0.7)"/>
       <use xlink:href="#DejaVuSans-Oblique-74" transform="translate(301.435547 -16.015625) scale(0.7)"/>
      </g>
     </g>
    </g>
    <g id="line2d_19">
     <path d="M 330.450516 218.766033 
L 330.450516 205.123806 
" clip-path="url(#p64a53107d8)" style="fill: none; stroke: #424242; stroke-width: 2.7; stroke-linecap: square"/>
    </g>
    <g id="line2d_20">
     <path d="M 348.996023 187.164164 
L 348.996023 177.294467 
" clip-path="url(#p64a53107d8)" style="fill: none; stroke: #424242; stroke-width: 2.7; stroke-linecap: square"/>
    </g>
    <g id="line2d_21">
     <path d="M 367.54153 176.414487 
L 367.54153 148.920692 
" clip-path="url(#p64a53107d8)" style="fill: none; stroke: #424242; stroke-width: 2.7; stroke-linecap: square"/>
    </g>
    <g id="line2d_22">
     <path d="M 330.205069 198.738726 
L 350.103609 194.859702 
" clip-path="url(#p64a53107d8)" style="fill: none; stroke: #000000; stroke-opacity: 0.1; stroke-width: 1.5; stroke-linecap: square"/>
    </g>
    <g id="line2d_23">
     <path d="M 331.446069 204.679059 
L 349.613711 183.159696 
" clip-path="url(#p64a53107d8)" style="fill: none; stroke: #000000; stroke-opacity: 0.1; stroke-width: 1.5; stroke-linecap: square"/>
    </g>
    <g id="line2d_24">
     <path d="M 329.845558 205.978737 
L 349.508928 174.368094 
" clip-path="url(#p64a53107d8)" style="fill: none; stroke: #000000; stroke-opacity: 0.1; stroke-width: 1.5; stroke-linecap: square"/>
    </g>
    <g id="line2d_25">
     <path d="M 329.395317 256.413387 
L 348.928627 184.106646 
" clip-path="url(#p64a53107d8)" style="fill: none; stroke: #000000; stroke-opacity: 0.1; stroke-width: 1.5; stroke-linecap: square"/>
    </g>
    <g id="line2d_26">
     <path d="M 331.308613 220.380563 
L 347.758653 179.189464 
" clip-path="url(#p64a53107d8)" style="fill: none; stroke: #000000; stroke-opacity: 0.1; stroke-width: 1.5; stroke-linecap: square"/>
    </g>
    <g id="line2d_27">
     <path d="M 330.336981 242.853374 
L 347.898045 196.865282 
" clip-path="url(#p64a53107d8)" style="fill: none; stroke: #000000; stroke-opacity: 0.1; stroke-width: 1.5; stroke-linecap: square"/>
    </g>
    <g id="line2d_28">
     <path d="M 331.069895 206.677921 
L 347.226481 170.763581 
" clip-path="url(#p64a53107d8)" style="fill: none; stroke: #000000; stroke-opacity: 0.1; stroke-width: 1.5; stroke-linecap: square"/>
    </g>
    <g id="line2d_29">
     <path d="M 329.062751 183.444461 
L 349.407533 151.16698 
" clip-path="url(#p64a53107d8)" style="fill: none; stroke: #000000; stroke-opacity: 0.1; stroke-width: 1.5; stroke-linecap: square"/>
    </g>
    <g id="line2d_30">
     <path d="M 331.513382 223.629448 
L 349.000909 215.111028 
" clip-path="url(#p64a53107d8)" style="fill: none; stroke: #000000; stroke-opacity: 0.1; stroke-width: 1.5; stroke-linecap: square"/>
    </g>
    <g id="line2d_31">
     <path d="M 331.327652 205.524612 
L 348.533519 179.298376 
" clip-path="url(#p64a53107d8)" style="fill: none; stroke: #000000; stroke-opacity: 0.1; stroke-width: 1.5; stroke-linecap: square"/>
    </g>
    <g id="line2d_32">
     <path d="M 329.004293 183.073827 
L 348.887151 175.633621 
" clip-path="url(#p64a53107d8)" style="fill: none; stroke: #000000; stroke-opacity: 0.1; stroke-width: 1.5; stroke-linecap: square"/>
    </g>
    <g id="line2d_33">
     <path d="M 349.000909 215.111028 
L 369.184622 227.054246 
" clip-path="url(#p64a53107d8)" style="fill: none; stroke: #000000; stroke-opacity: 0.1; stroke-width: 1.5; stroke-linecap: square"/>
    </g>
    <g id="line2d_34">
     <path d="M 349.613711 183.159696 
L 366.834705 161.54833 
" clip-path="url(#p64a53107d8)" style="fill: none; stroke: #000000; stroke-opacity: 0.1; stroke-width: 1.5; stroke-linecap: square"/>
    </g>
    <g id="line2d_35">
     <path d="M 348.533519 179.298376 
L 366.698729 172.126453 
" clip-path="url(#p64a53107d8)" style="fill: none; stroke: #000000; stroke-opacity: 0.1; stroke-width: 1.5; stroke-linecap: square"/>
    </g>
    <g id="line2d_36">
     <path d="M 348.887151 175.633621 
L 367.416471 134.463097 
" clip-path="url(#p64a53107d8)" style="fill: none; stroke: #000000; stroke-opacity: 0.1; stroke-width: 1.5; stroke-linecap: square"/>
    </g>
    <g id="line2d_37">
     <path d="M 349.407533 151.16698 
L 367.981788 213.142119 
" clip-path="url(#p64a53107d8)" style="fill: none; stroke: #000000; stroke-opacity: 0.1; stroke-width: 1.5; stroke-linecap: square"/>
    </g>
    <g id="line2d_38">
     <path d="M 347.898045 196.865282 
L 367.997908 212.662289 
" clip-path="url(#p64a53107d8)" style="fill: none; stroke: #000000; stroke-opacity: 0.1; stroke-width: 1.5; stroke-linecap: square"/>
    </g>
    <g id="line2d_39">
     <path d="M 347.758653 179.189464 
L 368.680575 160.251994 
" clip-path="url(#p64a53107d8)" style="fill: none; stroke: #000000; stroke-opacity: 0.1; stroke-width: 1.5; stroke-linecap: square"/>
    </g>
    <g id="line2d_40">
     <path d="M 350.103609 194.859702 
L 367.178611 172.195027 
" clip-path="url(#p64a53107d8)" style="fill: none; stroke: #000000; stroke-opacity: 0.1; stroke-width: 1.5; stroke-linecap: square"/>
    </g>
    <g id="line2d_41">
     <path d="M 347.226481 170.763581 
L 367.617866 99.505558 
" clip-path="url(#p64a53107d8)" style="fill: none; stroke: #000000; stroke-opacity: 0.1; stroke-width: 1.5; stroke-linecap: square"/>
    </g>
    <g id="line2d_42">
     <path d="M 349.508928 174.368094 
L 368.980909 81.678687 
" clip-path="url(#p64a53107d8)" style="fill: none; stroke: #000000; stroke-opacity: 0.1; stroke-width: 1.5; stroke-linecap: square"/>
    </g>
    <g id="line2d_43">
     <path d="M 348.928627 184.106646 
L 368.968289 154.715682 
" clip-path="url(#p64a53107d8)" style="fill: none; stroke: #000000; stroke-opacity: 0.1; stroke-width: 1.5; stroke-linecap: square"/>
    </g>
    <g id="line2d_44">
     <path d="M 330.450516 63.331543 
L 330.450516 59.48738 
L 367.54153 59.48738 
L 367.54153 63.331543 
" clip-path="url(#p64a53107d8)" style="fill: none; stroke: #000000; stroke-width: 0.5; stroke-linecap: square"/>
    </g>
    <g id="line2d_45">
     <path d="M 330.450516 77.747156 
L 330.450516 73.902992 
L 348.996023 73.902992 
L 348.996023 77.747156 
" clip-path="url(#p64a53107d8)" style="fill: none; stroke: #000000; stroke-width: 0.5; stroke-linecap: square"/>
    </g>
    <g id="patch_11">
     <path d="M 316.435943 266.259687 
L 316.435943 49.641079 
" style="fill: none; stroke: #000000; stroke-width: 0.5; stroke-linejoin: miter; stroke-linecap: square"/>
    </g>
    <g id="PathCollection_1">
     <defs>
      <path id="md8c2ed843a" d="M 0 2.5 
C 0.663008 2.5 1.29895 2.236584 1.767767 1.767767 
C 2.236584 1.29895 2.5 0.663008 2.5 0 
C 2.5 -0.663008 2.236584 -1.29895 1.767767 -1.767767 
C 1.29895 -2.236584 0.663008 -2.5 0 -2.5 
C -0.663008 -2.5 -1.29895 -2.236584 -1.767767 -1.767767 
C -2.236584 -1.29895 -2.5 -0.663008 -2.5 0 
C -2.5 0.663008 -2.236584 1.29895 -1.767767 1.767767 
C -1.29895 2.236584 -0.663008 2.5 0 2.5 
z
"/>
     </defs>
     <g clip-path="url(#p64a53107d8)">
      <use xlink:href="#md8c2ed843a" x="330.205069" y="198.738726"/>
      <use xlink:href="#md8c2ed843a" x="331.446069" y="204.679059"/>
      <use xlink:href="#md8c2ed843a" x="329.845558" y="205.978737"/>
      <use xlink:href="#md8c2ed843a" x="329.395317" y="256.413387"/>
      <use xlink:href="#md8c2ed843a" x="331.308613" y="220.380563"/>
      <use xlink:href="#md8c2ed843a" x="330.336981" y="242.853374"/>
      <use xlink:href="#md8c2ed843a" x="331.069895" y="206.677921"/>
      <use xlink:href="#md8c2ed843a" x="329.062751" y="183.444461"/>
      <use xlink:href="#md8c2ed843a" x="331.513382" y="223.629448"/>
      <use xlink:href="#md8c2ed843a" x="331.327652" y="205.524612"/>
      <use xlink:href="#md8c2ed843a" x="329.004293" y="183.073827"/>
     </g>
    </g>
    <g id="PathCollection_2">
     <g clip-path="url(#p64a53107d8)">
      <use xlink:href="#md8c2ed843a" x="349.000909" y="215.111028"/>
      <use xlink:href="#md8c2ed843a" x="349.613711" y="183.159696"/>
      <use xlink:href="#md8c2ed843a" x="348.533519" y="179.298376"/>
      <use xlink:href="#md8c2ed843a" x="348.887151" y="175.633621"/>
      <use xlink:href="#md8c2ed843a" x="349.407533" y="151.16698"/>
      <use xlink:href="#md8c2ed843a" x="347.898045" y="196.865282"/>
      <use xlink:href="#md8c2ed843a" x="347.758653" y="179.189464"/>
      <use xlink:href="#md8c2ed843a" x="350.103609" y="194.859702"/>
      <use xlink:href="#md8c2ed843a" x="347.226481" y="170.763581"/>
      <use xlink:href="#md8c2ed843a" x="349.508928" y="174.368094"/>
      <use xlink:href="#md8c2ed843a" x="348.928627" y="184.106646"/>
     </g>
    </g>
    <g id="PathCollection_3">
     <g clip-path="url(#p64a53107d8)">
      <use xlink:href="#md8c2ed843a" x="367.617866" y="99.505558"/>
      <use xlink:href="#md8c2ed843a" x="366.834705" y="161.54833"/>
      <use xlink:href="#md8c2ed843a" x="367.178611" y="172.195027"/>
      <use xlink:href="#md8c2ed843a" x="367.997908" y="212.662289"/>
      <use xlink:href="#md8c2ed843a" x="368.980909" y="81.678687"/>
      <use xlink:href="#md8c2ed843a" x="367.981788" y="213.142119"/>
      <use xlink:href="#md8c2ed843a" x="368.680575" y="160.251994"/>
      <use xlink:href="#md8c2ed843a" x="367.416471" y="134.463097"/>
      <use xlink:href="#md8c2ed843a" x="366.698729" y="172.126453"/>
      <use xlink:href="#md8c2ed843a" x="369.184622" y="227.054246"/>
      <use xlink:href="#md8c2ed843a" x="368.968289" y="154.715682"/>
     </g>
    </g>
    <g id="text_21">
     <!-- ** -->
     <g transform="translate(342.049148 62.398019) scale(0.18 -0.18)">
      <defs>
       <path id="Montserrat-Regular-2a" d="M 2330 4038 
L 2182 4314 
L 1382 3840 
L 1382 4749 
L 1088 4749 
L 1094 3840 
L 294 4314 
L 141 4038 
L 941 3590 
L 141 3142 
L 294 2874 
L 1094 3341 
L 1088 2432 
L 1382 2432 
L 1382 3341 
L 2182 2874 
L 2330 3142 
L 1536 3590 
L 2330 4038 
z
" transform="scale(0.015625)"/>
      </defs>
      <use xlink:href="#Montserrat-Regular-2a"/>
      <use xlink:href="#Montserrat-Regular-2a" x="38.599991"/>
     </g>
    </g>
    <g id="text_22">
     <!-- * -->
     <g transform="translate(336.249832 76.52532) scale(0.18 -0.18)">
      <use xlink:href="#Montserrat-Regular-2a"/>
     </g>
    </g>
    <g id="text_23">
     <!-- B -->
     <g transform="translate(269.513571 27.979219) scale(0.28 -0.28)">
      <defs>
       <path id="Montserrat-Regular-42" d="M 3552 2310 
C 3962 2477 4237 2816 4237 3328 
C 4237 4058 3661 4480 2662 4480 
L 730 4480 
L 730 0 
L 2790 0 
C 3910 0 4474 435 4474 1197 
C 4474 1805 4128 2182 3552 2310 
z
M 2630 4090 
C 3347 4090 3763 3814 3763 3277 
C 3763 2739 3347 2464 2630 2464 
L 1203 2464 
L 1203 4090 
L 2630 4090 
z
M 2784 390 
L 1203 390 
L 1203 2074 
L 2784 2074 
C 3571 2074 4000 1818 4000 1235 
C 4000 646 3571 390 2784 390 
z
" transform="scale(0.015625)"/>
      </defs>
      <use xlink:href="#Montserrat-Regular-42"/>
     </g>
    </g>
    <g id="text_24">
     <!-- original -->
     <g transform="translate(313.025554 29.641079) scale(0.18 -0.18)">
      <defs>
       <path id="Montserrat-Bold-6f" d="M 2099 -51 
C 3194 -51 3987 685 3987 1722 
C 3987 2758 3194 3494 2099 3494 
C 1005 3494 205 2758 205 1722 
C 205 685 1005 -51 2099 -51 
z
M 2099 768 
C 1600 768 1216 1126 1216 1722 
C 1216 2317 1600 2675 2099 2675 
C 2598 2675 2976 2317 2976 1722 
C 2976 1126 2598 768 2099 768 
z
" transform="scale(0.015625)"/>
       <path id="Montserrat-Bold-72" d="M 1414 2989 
L 1414 3443 
L 461 3443 
L 461 0 
L 1459 0 
L 1459 1626 
C 1459 2285 1824 2586 2374 2586 
C 2451 2586 2515 2579 2598 2573 
L 2598 3494 
C 2067 3494 1658 3322 1414 2989 
z
" transform="scale(0.015625)"/>
       <path id="Montserrat-Bold-67" d="M 3066 3443 
L 3066 3002 
C 2803 3334 2406 3494 1926 3494 
C 973 3494 205 2835 205 1830 
C 205 826 973 166 1926 166 
C 2374 166 2752 307 3014 595 
L 3014 448 
C 3014 -173 2707 -493 2003 -493 
C 1562 -493 1082 -339 787 -102 
L 390 -819 
C 794 -1133 1427 -1293 2080 -1293 
C 3322 -1293 4013 -704 4013 576 
L 4013 3443 
L 3066 3443 
z
M 2125 986 
C 1600 986 1216 1325 1216 1830 
C 1216 2336 1600 2675 2125 2675 
C 2650 2675 3027 2336 3027 1830 
C 3027 1325 2650 986 2125 986 
z
" transform="scale(0.015625)"/>
       <path id="Montserrat-Bold-6e" d="M 2554 3494 
C 2086 3494 1683 3334 1414 3040 
L 1414 3443 
L 461 3443 
L 461 0 
L 1459 0 
L 1459 1702 
C 1459 2336 1805 2630 2285 2630 
C 2726 2630 2982 2374 2982 1818 
L 2982 0 
L 3981 0 
L 3981 1971 
C 3981 3021 3366 3494 2554 3494 
z
" transform="scale(0.015625)"/>
      </defs>
      <use xlink:href="#Montserrat-Bold-6f"/>
      <use xlink:href="#Montserrat-Bold-72" x="65.499985"/>
      <use xlink:href="#Montserrat-Bold-69" x="108.599976"/>
      <use xlink:href="#Montserrat-Bold-67" x="138.699966"/>
      <use xlink:href="#Montserrat-Bold-69" x="208.699951"/>
      <use xlink:href="#Montserrat-Bold-6e" x="238.799942"/>
      <use xlink:href="#Montserrat-Bold-61" x="307.899933"/>
      <use xlink:href="#Montserrat-Bold-6c" x="369.59993"/>
     </g>
    </g>
    <g id="legend_2"/>
   </g>
   <g id="axes_3">
    <g id="patch_12">
     <path d="M 420.257666 266.259687 
L 477.377826 266.259687 
L 477.377826 49.641079 
L 420.257666 49.641079 
z
" style="fill: #ffffff"/>
    </g>
    <g id="patch_13">
     <path d="M 462.801058 198.661739 
L 471.925447 198.661739 
Q 474.707273 198.661739 474.707273 193.942528 
L 474.707273 170.668897 
Q 474.707273 165.949686 471.925447 165.949686 
L 462.801058 165.949686 
Q 460.019232 165.949686 460.019232 170.668897 
L 460.019232 193.942528 
Q 460.019232 198.661739 462.801058 198.661739 
z
" clip-path="url(#p568904eb13)" style="fill: #6281e9"/>
    </g>
    <g id="patch_14">
     <path d="M 444.255551 198.661739 
L 453.379941 198.661739 
Q 456.161767 198.661739 456.161767 193.942528 
L 456.161767 197.32225 
Q 456.161767 192.603039 453.379941 192.603039 
L 444.255551 192.603039 
Q 441.473725 192.603039 441.473725 197.32225 
L 441.473725 193.942528 
Q 441.473725 198.661739 444.255551 198.661739 
z
" clip-path="url(#p568904eb13)" style="fill: #be631d"/>
    </g>
    <g id="patch_15">
     <path d="M 425.710045 202.017818 
L 434.834434 202.017818 
Q 437.61626 202.017818 437.61626 197.298607 
L 437.61626 203.632642 
Q 437.61626 198.913431 434.834434 198.913431 
L 425.710045 198.913431 
Q 422.928219 198.913431 422.928219 203.632642 
L 422.928219 197.298607 
Q 422.928219 202.017818 425.710045 202.017818 
z
" clip-path="url(#p568904eb13)" style="fill: #2b8e70"/>
    </g>
    <g id="matplotlib.axis_5"/>
    <g id="matplotlib.axis_6">
     <g id="ytick_8">
      <g id="line2d_46"/>
      <g id="text_25">
       <!-- −2 -->
       <g transform="translate(396.756103 250.356318) scale(0.14 -0.14)">
        <use xlink:href="#Montserrat-Regular-2212"/>
        <use xlink:href="#Montserrat-Regular-32" x="57.499985"/>
       </g>
      </g>
     </g>
     <g id="ytick_9">
      <g id="line2d_47"/>
      <g id="text_26">
       <!-- 0 -->
       <g transform="translate(403.489228 203.981804) scale(0.14 -0.14)">
        <use xlink:href="#Montserrat-Regular-30"/>
       </g>
      </g>
     </g>
     <g id="ytick_10">
      <g id="line2d_48"/>
      <g id="text_27">
       <!-- 2 -->
       <g transform="translate(404.806103 157.607289) scale(0.14 -0.14)">
        <use xlink:href="#Montserrat-Regular-32"/>
       </g>
      </g>
     </g>
     <g id="ytick_11">
      <g id="line2d_49"/>
      <g id="text_28">
       <!-- 4 -->
       <g transform="translate(403.504541 111.232775) scale(0.14 -0.14)">
        <use xlink:href="#Montserrat-Regular-34"/>
       </g>
      </g>
     </g>
     <g id="ytick_12">
      <g id="line2d_50"/>
      <g id="text_29">
       <!-- 6 -->
       <g transform="translate(404.230791 64.85826) scale(0.14 -0.14)">
        <use xlink:href="#Montserrat-Regular-36"/>
       </g>
      </g>
     </g>
    </g>
    <g id="line2d_51">
     <path d="M 430.272239 210.821581 
L 430.272239 193.465747 
" clip-path="url(#p568904eb13)" style="fill: none; stroke: #424242; stroke-width: 2.7; stroke-linecap: square"/>
    </g>
    <g id="line2d_52">
     <path d="M 448.817746 197.12849 
L 448.817746 187.825897 
" clip-path="url(#p568904eb13)" style="fill: none; stroke: #424242; stroke-width: 2.7; stroke-linecap: square"/>
    </g>
    <g id="line2d_53">
     <path d="M 467.363253 180.467204 
L 467.363253 151.180476 
" clip-path="url(#p568904eb13)" style="fill: none; stroke: #424242; stroke-width: 2.7; stroke-linecap: square"/>
    </g>
    <g id="line2d_54">
     <path d="M 430.041188 183.884386 
L 448.155527 196.290982 
" clip-path="url(#p568904eb13)" style="fill: none; stroke: #000000; stroke-opacity: 0.1; stroke-width: 1.5; stroke-linecap: square"/>
    </g>
    <g id="line2d_55">
     <path d="M 429.115935 195.694517 
L 449.531095 188.854058 
" clip-path="url(#p568904eb13)" style="fill: none; stroke: #000000; stroke-opacity: 0.1; stroke-width: 1.5; stroke-linecap: square"/>
    </g>
    <g id="line2d_56">
     <path d="M 430.869257 198.262 
L 447.97324 179.754653 
" clip-path="url(#p568904eb13)" style="fill: none; stroke: #000000; stroke-opacity: 0.1; stroke-width: 1.5; stroke-linecap: square"/>
    </g>
    <g id="line2d_57">
     <path d="M 428.895748 256.413387 
L 449.080677 194.880442 
" clip-path="url(#p568904eb13)" style="fill: none; stroke: #000000; stroke-opacity: 0.1; stroke-width: 1.5; stroke-linecap: square"/>
    </g>
    <g id="line2d_58">
     <path d="M 429.586694 201.198611 
L 447.812141 208.898337 
" clip-path="url(#p568904eb13)" style="fill: none; stroke: #000000; stroke-opacity: 0.1; stroke-width: 1.5; stroke-linecap: square"/>
    </g>
    <g id="line2d_59">
     <path d="M 430.662477 235.753053 
L 448.157285 173.308762 
" clip-path="url(#p568904eb13)" style="fill: none; stroke: #000000; stroke-opacity: 0.1; stroke-width: 1.5; stroke-linecap: square"/>
    </g>
    <g id="line2d_60">
     <path d="M 430.50187 196.466814 
L 448.007174 190.018071 
" clip-path="url(#p568904eb13)" style="fill: none; stroke: #000000; stroke-opacity: 0.1; stroke-width: 1.5; stroke-linecap: square"/>
    </g>
    <g id="line2d_61">
     <path d="M 429.385373 161.842222 
L 449.089317 202.561814 
" clip-path="url(#p568904eb13)" style="fill: none; stroke: #000000; stroke-opacity: 0.1; stroke-width: 1.5; stroke-linecap: square"/>
    </g>
    <g id="line2d_62">
     <path d="M 431.639385 230.932241 
L 447.076882 221.211967 
" clip-path="url(#p568904eb13)" style="fill: none; stroke: #000000; stroke-opacity: 0.1; stroke-width: 1.5; stroke-linecap: square"/>
    </g>
    <g id="line2d_63">
     <path d="M 429.59057 197.15319 
L 449.326274 167.730852 
" clip-path="url(#p568904eb13)" style="fill: none; stroke: #000000; stroke-opacity: 0.1; stroke-width: 1.5; stroke-linecap: square"/>
    </g>
    <g id="line2d_64">
     <path d="M 429.11271 165.979883 
L 447.763107 193.739189 
" clip-path="url(#p568904eb13)" style="fill: none; stroke: #000000; stroke-opacity: 0.1; stroke-width: 1.5; stroke-linecap: square"/>
    </g>
    <g id="line2d_65">
     <path d="M 447.076882 221.211967 
L 468.475939 232.01255 
" clip-path="url(#p568904eb13)" style="fill: none; stroke: #000000; stroke-opacity: 0.1; stroke-width: 1.5; stroke-linecap: square"/>
    </g>
    <g id="line2d_66">
     <path d="M 447.763107 193.739189 
L 468.269962 178.404896 
" clip-path="url(#p568904eb13)" style="fill: none; stroke: #000000; stroke-opacity: 0.1; stroke-width: 1.5; stroke-linecap: square"/>
    </g>
    <g id="line2d_67">
     <path d="M 449.531095 188.854058 
L 469.122649 170.206892 
" clip-path="url(#p568904eb13)" style="fill: none; stroke: #000000; stroke-opacity: 0.1; stroke-width: 1.5; stroke-linecap: square"/>
    </g>
    <g id="line2d_68">
     <path d="M 448.007174 190.018071 
L 466.121484 167.989404 
" clip-path="url(#p568904eb13)" style="fill: none; stroke: #000000; stroke-opacity: 0.1; stroke-width: 1.5; stroke-linecap: square"/>
    </g>
    <g id="line2d_69">
     <path d="M 449.326274 167.730852 
L 466.896503 137.018215 
" clip-path="url(#p568904eb13)" style="fill: none; stroke: #000000; stroke-opacity: 0.1; stroke-width: 1.5; stroke-linecap: square"/>
    </g>
    <g id="line2d_70">
     <path d="M 449.089317 202.561814 
L 466.541298 217.122484 
" clip-path="url(#p568904eb13)" style="fill: none; stroke: #000000; stroke-opacity: 0.1; stroke-width: 1.5; stroke-linecap: square"/>
    </g>
    <g id="line2d_71">
     <path d="M 448.155527 196.290982 
L 468.448634 178.366201 
" clip-path="url(#p568904eb13)" style="fill: none; stroke: #000000; stroke-opacity: 0.1; stroke-width: 1.5; stroke-linecap: square"/>
    </g>
    <g id="line2d_72">
     <path d="M 447.812141 208.898337 
L 466.02243 81.678687 
" clip-path="url(#p568904eb13)" style="fill: none; stroke: #000000; stroke-opacity: 0.1; stroke-width: 1.5; stroke-linecap: square"/>
    </g>
    <g id="line2d_73">
     <path d="M 448.157285 173.308762 
L 467.710727 91.523977 
" clip-path="url(#p568904eb13)" style="fill: none; stroke: #000000; stroke-opacity: 0.1; stroke-width: 1.5; stroke-linecap: square"/>
    </g>
    <g id="line2d_74">
     <path d="M 447.97324 179.754653 
L 468.544739 217.110666 
" clip-path="url(#p568904eb13)" style="fill: none; stroke: #000000; stroke-opacity: 0.1; stroke-width: 1.5; stroke-linecap: square"/>
    </g>
    <g id="line2d_75">
     <path d="M 449.080677 194.880442 
L 468.794893 152.628271 
" clip-path="url(#p568904eb13)" style="fill: none; stroke: #000000; stroke-opacity: 0.1; stroke-width: 1.5; stroke-linecap: square"/>
    </g>
    <g id="line2d_76">
     <path d="M 430.272239 63.331543 
L 430.272239 59.48738 
L 467.363253 59.48738 
L 467.363253 63.331543 
" clip-path="url(#p568904eb13)" style="fill: none; stroke: #000000; stroke-width: 0.5; stroke-linecap: square"/>
    </g>
    <g id="patch_16">
     <path d="M 416.257666 266.259687 
L 416.257666 49.641079 
" style="fill: none; stroke: #000000; stroke-width: 0.5; stroke-linejoin: miter; stroke-linecap: square"/>
    </g>
    <g id="PathCollection_4">
     <g clip-path="url(#p568904eb13)">
      <use xlink:href="#md8c2ed843a" x="430.041188" y="183.884386"/>
      <use xlink:href="#md8c2ed843a" x="429.115935" y="195.694517"/>
      <use xlink:href="#md8c2ed843a" x="430.869257" y="198.262"/>
      <use xlink:href="#md8c2ed843a" x="428.895748" y="256.413387"/>
      <use xlink:href="#md8c2ed843a" x="429.586694" y="201.198611"/>
      <use xlink:href="#md8c2ed843a" x="430.662477" y="235.753053"/>
      <use xlink:href="#md8c2ed843a" x="430.50187" y="196.466814"/>
      <use xlink:href="#md8c2ed843a" x="429.385373" y="161.842222"/>
      <use xlink:href="#md8c2ed843a" x="431.639385" y="230.932241"/>
      <use xlink:href="#md8c2ed843a" x="429.59057" y="197.15319"/>
      <use xlink:href="#md8c2ed843a" x="429.11271" y="165.979883"/>
     </g>
    </g>
    <g id="PathCollection_5">
     <g clip-path="url(#p568904eb13)">
      <use xlink:href="#md8c2ed843a" x="447.076882" y="221.211967"/>
      <use xlink:href="#md8c2ed843a" x="447.763107" y="193.739189"/>
      <use xlink:href="#md8c2ed843a" x="449.531095" y="188.854058"/>
      <use xlink:href="#md8c2ed843a" x="448.007174" y="190.018071"/>
      <use xlink:href="#md8c2ed843a" x="449.326274" y="167.730852"/>
      <use xlink:href="#md8c2ed843a" x="449.089317" y="202.561814"/>
      <use xlink:href="#md8c2ed843a" x="448.155527" y="196.290982"/>
      <use xlink:href="#md8c2ed843a" x="447.812141" y="208.898337"/>
      <use xlink:href="#md8c2ed843a" x="448.157285" y="173.308762"/>
      <use xlink:href="#md8c2ed843a" x="447.97324" y="179.754653"/>
      <use xlink:href="#md8c2ed843a" x="449.080677" y="194.880442"/>
     </g>
    </g>
    <g id="PathCollection_6">
     <g clip-path="url(#p568904eb13)">
      <use xlink:href="#md8c2ed843a" x="467.710727" y="91.523977"/>
      <use xlink:href="#md8c2ed843a" x="469.122649" y="170.206892"/>
      <use xlink:href="#md8c2ed843a" x="468.448634" y="178.366201"/>
      <use xlink:href="#md8c2ed843a" x="468.544739" y="217.110666"/>
      <use xlink:href="#md8c2ed843a" x="466.02243" y="81.678687"/>
      <use xlink:href="#md8c2ed843a" x="466.541298" y="217.122484"/>
      <use xlink:href="#md8c2ed843a" x="466.121484" y="167.989404"/>
      <use xlink:href="#md8c2ed843a" x="466.896503" y="137.018215"/>
      <use xlink:href="#md8c2ed843a" x="468.269962" y="178.404896"/>
      <use xlink:href="#md8c2ed843a" x="468.475939" y="232.01255"/>
      <use xlink:href="#md8c2ed843a" x="468.794893" y="152.628271"/>
     </g>
    </g>
    <g id="text_30">
     <!-- * -->
     <g transform="translate(445.344308 62.547539) scale(0.18 -0.18)">
      <use xlink:href="#Montserrat-Regular-2a"/>
     </g>
    </g>
    <g id="text_31">
     <!-- macro -->
     <g transform="translate(418.731027 29.641079) scale(0.18 -0.18)">
      <defs>
       <path id="Montserrat-Bold-63" d="M 2125 -51 
C 2848 -51 3418 269 3667 819 
L 2893 1242 
C 2707 909 2432 768 2118 768 
C 1613 768 1216 1120 1216 1722 
C 1216 2323 1613 2675 2118 2675 
C 2432 2675 2707 2528 2893 2202 
L 3667 2618 
C 3418 3181 2848 3494 2125 3494 
C 1005 3494 205 2758 205 1722 
C 205 685 1005 -51 2125 -51 
z
" transform="scale(0.015625)"/>
      </defs>
      <use xlink:href="#Montserrat-Bold-6d"/>
      <use xlink:href="#Montserrat-Bold-61" x="104.899994"/>
      <use xlink:href="#Montserrat-Bold-63" x="166.599991"/>
      <use xlink:href="#Montserrat-Bold-72" x="225.699982"/>
      <use xlink:href="#Montserrat-Bold-6f" x="268.799973"/>
     </g>
    </g>
    <g id="legend_3"/>
   </g>
   <g id="axes_4">
    <g id="patch_17">
     <path d="M 520.079389 266.259687 
L 577.199549 266.259687 
L 577.199549 49.641079 
L 520.079389 49.641079 
z
" style="fill: #ffffff"/>
    </g>
    <g id="patch_18">
     <path d="M 562.622781 197.505784 
L 571.74717 197.505784 
Q 574.528996 197.505784 574.528996 192.829964 
L 574.528996 169.345963 
Q 574.528996 164.670144 571.74717 164.670144 
L 562.622781 164.670144 
Q 559.840955 164.670144 559.840955 169.345963 
L 559.840955 192.829964 
Q 559.840955 197.505784 562.622781 197.505784 
z
" clip-path="url(#pdb63a8d506)" style="fill: #6281e9"/>
    </g>
    <g id="patch_19">
     <path d="M 544.077274 197.505784 
L 553.201664 197.505784 
Q 555.98349 197.505784 555.98349 192.829964 
L 555.98349 195.158085 
Q 555.98349 190.482266 553.201664 190.482266 
L 544.077274 190.482266 
Q 541.295448 190.482266 541.295448 195.158085 
L 541.295448 192.829964 
Q 541.295448 197.505784 544.077274 197.505784 
z
" clip-path="url(#pdb63a8d506)" style="fill: #be631d"/>
    </g>
    <g id="patch_20">
     <path d="M 525.531768 202.897713 
L 534.656157 202.897713 
Q 537.437983 202.897713 537.437983 198.221893 
L 537.437983 202.43098 
Q 537.437983 197.755161 534.656157 197.755161 
L 525.531768 197.755161 
Q 522.749942 197.755161 522.749942 202.43098 
L 522.749942 198.221893 
Q 522.749942 202.897713 525.531768 202.897713 
z
" clip-path="url(#pdb63a8d506)" style="fill: #2b8e70"/>
    </g>
    <g id="matplotlib.axis_7"/>
    <g id="matplotlib.axis_8">
     <g id="ytick_13">
      <g id="line2d_77"/>
      <g id="text_32">
       <!-- −2 -->
       <g transform="translate(496.577826 247.244182) scale(0.14 -0.14)">
        <use xlink:href="#Montserrat-Regular-2212"/>
        <use xlink:href="#Montserrat-Regular-32" x="57.499985"/>
       </g>
      </g>
     </g>
     <g id="ytick_14">
      <g id="line2d_78"/>
      <g id="text_33">
       <!-- 0 -->
       <g transform="translate(503.310951 202.824691) scale(0.14 -0.14)">
        <use xlink:href="#Montserrat-Regular-30"/>
       </g>
      </g>
     </g>
     <g id="ytick_15">
      <g id="line2d_79"/>
      <g id="text_34">
       <!-- 2 -->
       <g transform="translate(504.627826 158.4052) scale(0.14 -0.14)">
        <use xlink:href="#Montserrat-Regular-32"/>
       </g>
      </g>
     </g>
     <g id="ytick_16">
      <g id="line2d_80"/>
      <g id="text_35">
       <!-- 4 -->
       <g transform="translate(503.326264 113.98571) scale(0.14 -0.14)">
        <use xlink:href="#Montserrat-Regular-34"/>
       </g>
      </g>
     </g>
     <g id="ytick_17">
      <g id="line2d_81"/>
      <g id="text_36">
       <!-- 6 -->
       <g transform="translate(504.052514 69.566219) scale(0.14 -0.14)">
        <use xlink:href="#Montserrat-Regular-36"/>
       </g>
      </g>
     </g>
    </g>
    <g id="line2d_82">
     <path d="M 530.093962 211.253783 
L 530.093962 194.79102 
" clip-path="url(#pdb63a8d506)" style="fill: none; stroke: #424242; stroke-width: 2.7; stroke-linecap: square"/>
    </g>
    <g id="line2d_83">
     <path d="M 548.639469 194.992515 
L 548.639469 185.722639 
" clip-path="url(#pdb63a8d506)" style="fill: none; stroke: #424242; stroke-width: 2.7; stroke-linecap: square"/>
    </g>
    <g id="line2d_84">
     <path d="M 567.184976 178.464325 
L 567.184976 150.626585 
" clip-path="url(#pdb63a8d506)" style="fill: none; stroke: #424242; stroke-width: 2.7; stroke-linecap: square"/>
    </g>
    <g id="line2d_85">
     <path d="M 528.538604 184.595751 
L 549.827527 194.113711 
" clip-path="url(#pdb63a8d506)" style="fill: none; stroke: #000000; stroke-opacity: 0.1; stroke-width: 1.5; stroke-linecap: square"/>
    </g>
    <g id="line2d_86">
     <path d="M 529.269716 196.989968 
L 550.264318 186.144299 
" clip-path="url(#pdb63a8d506)" style="fill: none; stroke: #000000; stroke-opacity: 0.1; stroke-width: 1.5; stroke-linecap: square"/>
    </g>
    <g id="line2d_87">
     <path d="M 531.614904 199.281639 
L 548.204698 179.628835 
" clip-path="url(#pdb63a8d506)" style="fill: none; stroke: #000000; stroke-opacity: 0.1; stroke-width: 1.5; stroke-linecap: square"/>
    </g>
    <g id="line2d_88">
     <path d="M 528.799749 256.413387 
L 548.498475 193.522765 
" clip-path="url(#pdb63a8d506)" style="fill: none; stroke: #000000; stroke-opacity: 0.1; stroke-width: 1.5; stroke-linecap: square"/>
    </g>
    <g id="line2d_89">
     <path d="M 528.378302 204.204565 
L 549.454849 204.75702 
" clip-path="url(#pdb63a8d506)" style="fill: none; stroke: #000000; stroke-opacity: 0.1; stroke-width: 1.5; stroke-linecap: square"/>
    </g>
    <g id="line2d_90">
     <path d="M 529.081289 235.521185 
L 550.406222 186.866223 
" clip-path="url(#pdb63a8d506)" style="fill: none; stroke: #000000; stroke-opacity: 0.1; stroke-width: 1.5; stroke-linecap: square"/>
    </g>
    <g id="line2d_91">
     <path d="M 528.602116 197.466267 
L 547.877018 200.865486 
" clip-path="url(#pdb63a8d506)" style="fill: none; stroke: #000000; stroke-opacity: 0.1; stroke-width: 1.5; stroke-linecap: square"/>
    </g>
    <g id="line2d_92">
     <path d="M 530.741861 165.878916 
L 550.414709 171.962566 
" clip-path="url(#pdb63a8d506)" style="fill: none; stroke: #000000; stroke-opacity: 0.1; stroke-width: 1.5; stroke-linecap: square"/>
    </g>
    <g id="line2d_93">
     <path d="M 531.793635 226.818174 
L 549.921246 219.948695 
" clip-path="url(#pdb63a8d506)" style="fill: none; stroke: #000000; stroke-opacity: 0.1; stroke-width: 1.5; stroke-linecap: square"/>
    </g>
    <g id="line2d_94">
     <path d="M 529.239979 196.8142 
L 547.065928 164.649608 
" clip-path="url(#pdb63a8d506)" style="fill: none; stroke: #000000; stroke-opacity: 0.1; stroke-width: 1.5; stroke-linecap: square"/>
    </g>
    <g id="line2d_95">
     <path d="M 528.416332 169.262361 
L 547.469729 191.474139 
" clip-path="url(#pdb63a8d506)" style="fill: none; stroke: #000000; stroke-opacity: 0.1; stroke-width: 1.5; stroke-linecap: square"/>
    </g>
    <g id="line2d_96">
     <path d="M 549.921246 219.948695 
L 568.058451 228.046967 
" clip-path="url(#pdb63a8d506)" style="fill: none; stroke: #000000; stroke-opacity: 0.1; stroke-width: 1.5; stroke-linecap: square"/>
    </g>
    <g id="line2d_97">
     <path d="M 547.469729 191.474139 
L 567.188425 176.391819 
" clip-path="url(#pdb63a8d506)" style="fill: none; stroke: #000000; stroke-opacity: 0.1; stroke-width: 1.5; stroke-linecap: square"/>
    </g>
    <g id="line2d_98">
     <path d="M 550.264318 186.144299 
L 568.957968 168.105679 
" clip-path="url(#pdb63a8d506)" style="fill: none; stroke: #000000; stroke-opacity: 0.1; stroke-width: 1.5; stroke-linecap: square"/>
    </g>
    <g id="line2d_99">
     <path d="M 550.406222 186.866223 
L 566.534053 166.375935 
" clip-path="url(#pdb63a8d506)" style="fill: none; stroke: #000000; stroke-opacity: 0.1; stroke-width: 1.5; stroke-linecap: square"/>
    </g>
    <g id="line2d_100">
     <path d="M 547.065928 164.649608 
L 566.163311 138.803009 
" clip-path="url(#pdb63a8d506)" style="fill: none; stroke: #000000; stroke-opacity: 0.1; stroke-width: 1.5; stroke-linecap: square"/>
    </g>
    <g id="line2d_101">
     <path d="M 547.877018 200.865486 
L 568.238678 212.888143 
" clip-path="url(#pdb63a8d506)" style="fill: none; stroke: #000000; stroke-opacity: 0.1; stroke-width: 1.5; stroke-linecap: square"/>
    </g>
    <g id="line2d_102">
     <path d="M 549.827527 194.113711 
L 568.510244 177.343138 
" clip-path="url(#pdb63a8d506)" style="fill: none; stroke: #000000; stroke-opacity: 0.1; stroke-width: 1.5; stroke-linecap: square"/>
    </g>
    <g id="line2d_103">
     <path d="M 549.454849 204.75702 
L 566.638489 211.445312 
" clip-path="url(#pdb63a8d506)" style="fill: none; stroke: #000000; stroke-opacity: 0.1; stroke-width: 1.5; stroke-linecap: square"/>
    </g>
    <g id="line2d_104">
     <path d="M 550.414709 171.962566 
L 568.144805 95.490933 
" clip-path="url(#pdb63a8d506)" style="fill: none; stroke: #000000; stroke-opacity: 0.1; stroke-width: 1.5; stroke-linecap: square"/>
    </g>
    <g id="line2d_105">
     <path d="M 548.204698 179.628835 
L 568.43518 81.678687 
" clip-path="url(#pdb63a8d506)" style="fill: none; stroke: #000000; stroke-opacity: 0.1; stroke-width: 1.5; stroke-linecap: square"/>
    </g>
    <g id="line2d_106">
     <path d="M 548.498475 193.522765 
L 568.4014 153.430383 
" clip-path="url(#pdb63a8d506)" style="fill: none; stroke: #000000; stroke-opacity: 0.1; stroke-width: 1.5; stroke-linecap: square"/>
    </g>
    <g id="line2d_107">
     <path d="M 530.093962 63.331543 
L 530.093962 59.48738 
L 567.184976 59.48738 
L 567.184976 63.331543 
" clip-path="url(#pdb63a8d506)" style="fill: none; stroke: #000000; stroke-width: 0.5; stroke-linecap: square"/>
    </g>
    <g id="patch_21">
     <path d="M 516.079389 266.259687 
L 516.079389 49.641079 
" style="fill: none; stroke: #000000; stroke-width: 0.5; stroke-linejoin: miter; stroke-linecap: square"/>
    </g>
    <g id="PathCollection_7">
     <g clip-path="url(#pdb63a8d506)">
      <use xlink:href="#md8c2ed843a" x="528.538604" y="184.595751"/>
      <use xlink:href="#md8c2ed843a" x="529.269716" y="196.989968"/>
      <use xlink:href="#md8c2ed843a" x="531.614904" y="199.281639"/>
      <use xlink:href="#md8c2ed843a" x="528.799749" y="256.413387"/>
      <use xlink:href="#md8c2ed843a" x="528.378302" y="204.204565"/>
      <use xlink:href="#md8c2ed843a" x="529.081289" y="235.521185"/>
      <use xlink:href="#md8c2ed843a" x="528.602116" y="197.466267"/>
      <use xlink:href="#md8c2ed843a" x="530.741861" y="165.878916"/>
      <use xlink:href="#md8c2ed843a" x="531.793635" y="226.818174"/>
      <use xlink:href="#md8c2ed843a" x="529.239979" y="196.8142"/>
      <use xlink:href="#md8c2ed843a" x="528.416332" y="169.262361"/>
     </g>
    </g>
    <g id="PathCollection_8">
     <g clip-path="url(#pdb63a8d506)">
      <use xlink:href="#md8c2ed843a" x="549.921246" y="219.948695"/>
      <use xlink:href="#md8c2ed843a" x="547.469729" y="191.474139"/>
      <use xlink:href="#md8c2ed843a" x="550.264318" y="186.144299"/>
      <use xlink:href="#md8c2ed843a" x="550.406222" y="186.866223"/>
      <use xlink:href="#md8c2ed843a" x="547.065928" y="164.649608"/>
      <use xlink:href="#md8c2ed843a" x="547.877018" y="200.865486"/>
      <use xlink:href="#md8c2ed843a" x="549.827527" y="194.113711"/>
      <use xlink:href="#md8c2ed843a" x="549.454849" y="204.75702"/>
      <use xlink:href="#md8c2ed843a" x="550.414709" y="171.962566"/>
      <use xlink:href="#md8c2ed843a" x="548.204698" y="179.628835"/>
      <use xlink:href="#md8c2ed843a" x="548.498475" y="193.522765"/>
     </g>
    </g>
    <g id="PathCollection_9">
     <g clip-path="url(#pdb63a8d506)">
      <use xlink:href="#md8c2ed843a" x="568.144805" y="95.490933"/>
      <use xlink:href="#md8c2ed843a" x="568.957968" y="168.105679"/>
      <use xlink:href="#md8c2ed843a" x="568.510244" y="177.343138"/>
      <use xlink:href="#md8c2ed843a" x="566.638489" y="211.445312"/>
      <use xlink:href="#md8c2ed843a" x="568.43518" y="81.678687"/>
      <use xlink:href="#md8c2ed843a" x="568.238678" y="212.888143"/>
      <use xlink:href="#md8c2ed843a" x="566.534053" y="166.375935"/>
      <use xlink:href="#md8c2ed843a" x="566.163311" y="138.803009"/>
      <use xlink:href="#md8c2ed843a" x="567.188425" y="176.391819"/>
      <use xlink:href="#md8c2ed843a" x="568.058451" y="228.046967"/>
      <use xlink:href="#md8c2ed843a" x="568.4014" y="153.430383"/>
     </g>
    </g>
    <g id="text_37">
     <!-- * -->
     <g transform="translate(545.166032 62.524397) scale(0.18 -0.18)">
      <use xlink:href="#Montserrat-Regular-2a"/>
     </g>
    </g>
    <g id="text_38">
     <!-- vascular -->
     <g transform="translate(509.284157 29.641079) scale(0.18 -0.18)">
      <defs>
       <path id="Montserrat-Bold-76" d="M 2918 3443 
L 1933 1101 
L 979 3443 
L -51 3443 
L 1395 0 
L 2426 0 
L 3878 3443 
L 2918 3443 
z
" transform="scale(0.015625)"/>
       <path id="Montserrat-Bold-73" d="M 1619 -51 
C 2650 -51 3245 403 3245 1043 
C 3245 2400 1165 1830 1165 2419 
C 1165 2598 1357 2739 1805 2739 
C 2118 2739 2458 2675 2797 2483 
L 3130 3194 
C 2803 3386 2278 3494 1805 3494 
C 800 3494 211 3034 211 2381 
C 211 1005 2291 1581 2291 1018 
C 2291 826 2118 704 1658 704 
C 1235 704 768 838 461 1037 
L 128 320 
C 448 109 1037 -51 1619 -51 
z
" transform="scale(0.015625)"/>
       <path id="Montserrat-Bold-75" d="M 2931 3443 
L 2931 1741 
C 2931 1107 2598 813 2138 813 
C 1696 813 1440 1069 1440 1645 
L 1440 3443 
L 442 3443 
L 442 1498 
C 442 435 1050 -51 1914 -51 
C 2336 -51 2720 109 2982 410 
L 2982 0 
L 3930 0 
L 3930 3443 
L 2931 3443 
z
" transform="scale(0.015625)"/>
      </defs>
      <use xlink:href="#Montserrat-Bold-76"/>
      <use xlink:href="#Montserrat-Bold-61" x="59.799988"/>
      <use xlink:href="#Montserrat-Bold-73" x="121.499985"/>
      <use xlink:href="#Montserrat-Bold-63" x="174.599976"/>
      <use xlink:href="#Montserrat-Bold-75" x="233.699966"/>
      <use xlink:href="#Montserrat-Bold-6c" x="302.399948"/>
      <use xlink:href="#Montserrat-Bold-61" x="332.499939"/>
      <use xlink:href="#Montserrat-Bold-72" x="394.199936"/>
     </g>
    </g>
    <g id="legend_4"/>
   </g>
   <g id="text_39">
    <!-- stimulus type -->
    <g transform="translate(361.993946 285.61673) scale(0.18 -0.18)">
     <defs>
      <path id="Montserrat-Regular-73" d="M 1536 -32 
C 2413 -32 2925 346 2925 928 
C 2925 2221 742 1536 742 2445 
C 742 2765 1011 3002 1619 3002 
C 1965 3002 2317 2918 2611 2714 
L 2810 3078 
C 2528 3270 2054 3392 1619 3392 
C 762 3392 288 2982 288 2432 
C 288 1101 2470 1792 2470 915 
C 2470 582 2208 365 1568 365 
C 1094 365 640 531 371 742 
L 166 384 
C 442 147 979 -32 1536 -32 
z
" transform="scale(0.015625)"/>
      <path id="Montserrat-Regular-74" d="M 2246 531 
C 2118 416 1933 358 1747 358 
C 1370 358 1165 576 1165 973 
L 1165 2982 
L 2189 2982 
L 2189 3366 
L 1165 3366 
L 1165 4102 
L 710 4102 
L 710 3366 
L 109 3366 
L 109 2982 
L 710 2982 
L 710 947 
C 710 326 1062 -32 1696 -32 
C 1958 -32 2227 45 2406 205 
L 2246 531 
z
" transform="scale(0.015625)"/>
      <path id="Montserrat-Regular-75" d="M 3213 3366 
L 3213 1600 
C 3213 832 2771 378 2067 378 
C 1427 378 1056 742 1056 1459 
L 1056 3366 
L 602 3366 
L 602 1414 
C 602 448 1165 -32 2022 -32 
C 2560 -32 2995 205 3232 614 
L 3232 0 
L 3667 0 
L 3667 3366 
L 3213 3366 
z
" transform="scale(0.015625)"/>
     </defs>
     <use xlink:href="#Montserrat-Regular-73"/>
     <use xlink:href="#Montserrat-Regular-74" x="48.899994"/>
     <use xlink:href="#Montserrat-Regular-69" x="89.499985"/>
     <use xlink:href="#Montserrat-Regular-6d" x="116.399979"/>
     <use xlink:href="#Montserrat-Regular-75" x="222.499969"/>
     <use xlink:href="#Montserrat-Regular-6c" x="289.799957"/>
     <use xlink:href="#Montserrat-Regular-75" x="316.699951"/>
     <use xlink:href="#Montserrat-Regular-73" x="383.999939"/>
     <use xlink:href="#Montserrat-Regular-20" x="432.899933"/>
     <use xlink:href="#Montserrat-Regular-74" x="459.09993"/>
     <use xlink:href="#Montserrat-Regular-79" x="499.699921"/>
     <use xlink:href="#Montserrat-Regular-70" x="553.899918"/>
     <use xlink:href="#Montserrat-Regular-65" x="621.699905"/>
    </g>
   </g>
  </g>
 </g>
 <defs>
  <clipPath id="pcb9798e824">
   <rect x="26.83919" y="48.303055" width="219.173359" height="203.2618"/>
  </clipPath>
  <clipPath id="p64a53107d8">
   <rect x="320.435943" y="49.641079" width="57.120161" height="216.618608"/>
  </clipPath>
  <clipPath id="p568904eb13">
   <rect x="420.257666" y="49.641079" width="57.120161" height="216.618608"/>
  </clipPath>
  <clipPath id="pdb63a8d506">
   <rect x="520.079389" y="49.641079" width="57.120161" height="216.618608"/>
  </clipPath>
 </defs>
</svg>
